<svg xmlns="http://www.w3.org/2000/svg" viewBox="0 0 32 32">
  <rect width="32" height="32" rx="6" fill="#0EA5E9"/>
  <path d="M4 22c.8.7 1.6 1.3 3.3 1.3 3.3 0 3.3-2.7 6.7-2.7 1.7 0 2.5.7 3.3 1.3s1.6 1.3 3.3 1.3c3.3 0 3.3-2.7 6.7-2.7 1.7 0 2.5.7 3.3 1.3" stroke="#0A1628" stroke-width="1.5" fill="none" stroke-linecap="round"/>
  <path d="M25.5 21.3A15.4 15.4 0 0028 14l-12-5.3L4 14c0 3.9 1.3 7.1 3.7 10.3" stroke="#0A1628" stroke-width="1.5" fill="none" stroke-linecap="round"/>
  <path d="M25 13.3V5.3a2.7 2.7 0 00-2.7-2.7H9.7A2.7 2.7 0 007 5.3v8" stroke="#0A1628" stroke-width="1.5" fill="none" stroke-linecap="round"/>
  <line x1="16" y1="2.7" x2="16" y2="8" stroke="#0A1628" stroke-width="1.5" stroke-linecap="round"/>
</svg>
